<svg id="color" enable-background="new 0 0 24 24" height="512" viewBox="0 0 24 24" width="512" xmlns="http://www.w3.org/2000/svg"><path d="m12 8.75c-.553 0-1-.447-1-1v-2.75c0-1.654-1.346-3-3-3s-3 1.346-3 3v2.75c0 .553-.447 1-1 1s-1-.447-1-1v-2.75c0-2.757 2.243-5 5-5s5 2.243 5 5v2.75c0 .553-.447 1-1 1z" fill="#90a4ae"/><path d="m13.75 20h-11.5c-1.24 0-2.25-1.01-2.25-2.25v-8.5c0-1.24 1.01-2.25 2.25-2.25h11.5c1.24 0 2.25 1.01 2.25 2.25v8.5c0 1.24-1.01 2.25-2.25 2.25z" fill="#ffc107"/><path d="m8 0c-2.757 0-5 2.243-5 5v2h2v-2c0-1.654 1.346-3 3-3z" fill="#7d8f97"/><path d="m8 7h-3-2-.75c-1.24 0-2.25 1.01-2.25 2.25v8.5c0 1.24 1.01 2.25 2.25 2.25h5.75z" fill="#dea806"/><path d="m17.5 11c-3.584 0-6.5 2.916-6.5 6.5s2.916 6.5 6.5 6.5 6.5-2.916 6.5-6.5-2.916-6.5-6.5-6.5zm0 2c.879 0 1.692.263 2.387.7l-6.188 6.186c-.436-.694-.699-1.507-.699-2.386 0-2.481 2.019-4.5 4.5-4.5zm0 9c-.879 0-1.692-.263-2.387-.7l6.187-6.186c.437.694.7 1.507.7 2.386 0 2.481-2.019 4.5-4.5 4.5z" fill="#f44336"/><path d="m17.5 11c-3.584 0-6.5 2.916-6.5 6.5s2.916 6.5 6.5 6.5v-2c-.879 0-1.692-.263-2.387-.7l2.387-2.386v-2.828l-3.801 3.8c-.436-.694-.699-1.507-.699-2.386 0-2.481 2.019-4.5 4.5-4.5z" fill="#d43a2f"/></svg>